<svg xmlns="http://www.w3.org/2000/svg" viewBox="0 0 1040 330" width="1040" height="330">
<defs>
  <radialGradient id="cR1" cx="0.38" cy="0.3" r="0.85"><stop offset="0" stop-color="#FBE9A8"/><stop offset="0.5" stop-color="#E3B94A"/><stop offset="1" stop-color="#9E7415"/></radialGradient>
  <linearGradient id="rR1" x1="0" y1="0" x2="1" y2="1"><stop offset="0" stop-color="#31517F"/><stop offset="1" stop-color="#14284A"/></linearGradient>
  <linearGradient id="bodyR1" x1="0" y1="0" x2="0" y2="1"><stop offset="0" stop-color="#3E6499"/><stop offset="1" stop-color="#1B3358"/></linearGradient>
  <linearGradient id="barR1" x1="0" y1="0" x2="1" y2="0"><stop offset="0" stop-color="#14284A"/><stop offset="0.5" stop-color="#3A5E92"/><stop offset="1" stop-color="#14284A"/></linearGradient>
  <radialGradient id="glassR1" cx="0.4" cy="0.35" r="0.8"><stop offset="0" stop-color="#9FC1F7"/><stop offset="0.55" stop-color="#2E5387"/><stop offset="1" stop-color="#0C1830"/></radialGradient>
  <linearGradient id="lzR1" x1="0" y1="0" x2="1" y2="0"><stop offset="0" stop-color="#FF5A5A" stop-opacity="0"/><stop offset="0.5" stop-color="#FF5A5A"/><stop offset="1" stop-color="#FF5A5A" stop-opacity="0"/></linearGradient>
</defs>
<!-- MV1: square industrial camera body + ribbed C-mount barrel straight down -->
<g transform="translate(150,220)">
  <ellipse cx="0" cy="50" rx="88" ry="25" fill="#12233F" opacity="0.28"/>
  <ellipse cx="0" cy="32" rx="84" ry="27" fill="url(#rR1)"/>
  <ellipse cx="0" cy="22" rx="84" ry="27" fill="#9E7415"/>
  <ellipse cx="0" cy="10" rx="84" ry="27" fill="url(#rR1)"/>
  <ellipse cx="0" cy="0"  rx="84" ry="27" fill="#B98A1E"/>
  <ellipse cx="0" cy="-14" rx="84" ry="29" fill="url(#rR1)"/>
  <ellipse cx="0" cy="-16" rx="76" ry="25" fill="url(#cR1)"/>
  <path d="M 0,-30 L 6,-17 L 21,-16.6 L 9,-7.5 L 13.5,7 L 0,-1.5 L -13.5,7 L -9,-7.5 L -21,-16.6 L -6,-17 Z" fill="#1F3864" transform="translate(0,1)"/>
  <rect x="-92" y="-18" width="184" height="6" rx="3" fill="url(#lzR1)"/>
</g>
<!-- camera: cube body, status LED, then stacked lens rings tapering down -->
<g transform="translate(150,70)">
  <rect x="-40" y="-34" width="80" height="56" rx="8" fill="url(#bodyR1)"/>
  <rect x="-40" y="-34" width="80" height="9" rx="4" fill="#2E5387"/>
  <circle cx="-28" cy="-20" r="4" fill="#9B7BF0"/>
  <rect x="24" y="-24" width="12" height="8" rx="2" fill="#C79320"/>
  <!-- C-mount barrel: three rings tapering -->
  <rect x="-26" y="22" width="52" height="14" rx="3" fill="url(#barR1)"/>
  <rect x="-22" y="36" width="44" height="14" rx="3" fill="url(#barR1)"/>
  <rect x="-18" y="50" width="36" height="12" rx="3" fill="#14284A"/>
  <ellipse cx="0" cy="62" rx="18" ry="6" fill="#0C1830"/>
  <ellipse cx="0" cy="61" rx="13" ry="4.5" fill="url(#glassR1)"/>
</g>
<path d="M 136 138 L 110 190 M 164 138 L 190 190" stroke="#5B8DEF" stroke-width="2" stroke-dasharray="3 4" opacity="0.55"/>
<g font-family="Arial, Helvetica, sans-serif">
  <text x="300" y="172" font-size="74" font-weight="800" letter-spacing="1.5"><tspan fill="#1F3864">SCOUT</tspan><tspan fill="#9DAAC0">-</tspan><tspan fill="#C79320">CoinScan</tspan></text>
  <text x="303" y="214" font-size="21" fill="#63738C" letter-spacing="3">SORTING COINS OPTICALLY WITH UV TECH</text>
</g>
</svg>
